<?xml version="1.0" encoding="UTF-8" standalone="no"?>
<svg
   xmlns:dc="http://purl.org/dc/elements/1.1/"
   xmlns:cc="http://creativecommons.org/ns#"
   xmlns:rdf="http://www.w3.org/1999/02/22-rdf-syntax-ns#"
   xmlns:svg="http://www.w3.org/2000/svg"
   xmlns="http://www.w3.org/2000/svg"
   xmlns:sodipodi="http://sodipodi.sourceforge.net/DTD/sodipodi-0.dtd"
   xmlns:inkscape="http://www.inkscape.org/namespaces/inkscape"
   viewBox="0 0 128 128"
   id="svg2"
   version="1.1"
   inkscape:version="0.91 r13725"
   sodipodi:docname="icon.svg"
   inkscape:export-filename="/Users/arturdinizadam/workspaces/arturdaz/VSCodeQuitControl/quit/images/icon.png"
   inkscape:export-xdpi="90"
   inkscape:export-ydpi="90"
   width="128"
   height="128">
  <metadata
     id="metadata12">
    <rdf:RDF>
      <cc:Work
         rdf:about="">
        <dc:format>image/svg+xml</dc:format>
        <dc:type
           rdf:resource="http://purl.org/dc/dcmitype/StillImage" />
        <dc:title />
      </cc:Work>
    </rdf:RDF>
  </metadata>
  <defs
     id="defs10" />
  <sodipodi:namedview
     pagecolor="#ffffff"
     bordercolor="#666666"
     borderopacity="1"
     objecttolerance="10"
     gridtolerance="10"
     guidetolerance="10"
     inkscape:pageopacity="0"
     inkscape:pageshadow="2"
     inkscape:window-width="1440"
     inkscape:window-height="851"
     id="namedview8"
     showgrid="false"
     inkscape:zoom="2.7812867"
     inkscape:cx="42.339573"
     inkscape:cy="94.770944"
     inkscape:window-x="0"
     inkscape:window-y="1"
     inkscape:window-maximized="1"
     inkscape:current-layer="g4149"
     fit-margin-top="0"
     fit-margin-left="0"
     fit-margin-right="0"
     fit-margin-bottom="0" />
  <g
     id="g4149"
     transform="translate(45.662319,-55.01051)">
    <g
       id="g4153"
       transform="matrix(1.3299326,0,0,1.3299326,-44.997352,-4.7602989)">
      <path
         style="opacity:1;fill:#007acc;fill-opacity:1;stroke:#007acc;stroke-opacity:1"
         d="m 58.183871,124.4781 c -0.06447,-1.3443 -0.117221,-5.95045 -0.117221,-10.23588 l 0,-7.7917 -18.516609,0 -18.51661,0 0,-13.393078 0,-13.393082 18.51661,0 18.516609,0 0.02436,-5.887563 c 0.01339,-3.238159 0.07407,-7.802246 0.13483,-10.142414 l 0.110467,-4.25485 2.704579,2.457121 C 87.576639,85.94449 94.706375,92.438516 94.9929,92.761403 c 0.336771,0.379509 0.336771,0.39234 0,0.77177 -0.5055,0.569528 -22.450201,20.552387 -34.260977,31.198067 l -2.430834,2.19104 -0.117221,-2.44418 z"
         id="path4146"
         inkscape:connector-curvature="0" />
    </g>
    <g
       id="g4143"
       transform="matrix(0.99480492,0,0,0.99480492,0.42774946,0.71449288)">
      <path
         inkscape:connector-curvature="0"
         id="path4144"
         d="m 0,93.057442 0,-34.426513 23.909797,0 23.909798,0 0,5.393187 0,5.393188 -18.51661,0 -18.51661,0 0,23.640138 0,23.640138 18.51661,0 18.51661,0 0,5.39319 0,5.39318 -23.909798,0 -23.909797,0 0,-34.426508 z"
         style="opacity:1;fill:#2c2c2c;fill-opacity:1;stroke:#2c2c2c;stroke-opacity:1"
         transform="matrix(1.3368778,0,0,1.3368778,-45.662321,-5.503382)" />
      <path
         transform="translate(-45.662319,55.01051)"
         inkscape:connector-curvature="0"
         id="path3336"
         d="m 77.340693,107.19872 c -0.127639,-1.63974 -0.233044,-7.875663 -0.23423,-13.857606 l -0.0022,-10.876261 -24.808661,0 -24.808662,0 0,-18.51661 0,-18.51661 24.808662,0 24.808661,0 0.04518,-8.718986 c 0.02484,-4.795442 0.146195,-11.002789 0.269659,-13.794105 l 0.224479,-5.07512 15.999789,14.546727 c 30.36645,27.608652 34.15685,31.113339 34.15685,31.58222 0,0.580526 -4.30407,4.581117 -28.949199,26.907999 -10.67534,9.671162 -19.830146,17.969982 -20.344005,18.441812 l -0.934298,0.8579 -0.232072,-2.98136 z"
         style="opacity:1;fill:#007acc;fill-opacity:1;stroke:#007acc;stroke-width:0.35954583;stroke-opacity:1" />
    </g>
  </g>
</svg>
